<svg width="900" height="720" viewBox="350 100 900 720" fill="none" xmlns="http://www.w3.org/2000/svg">
<path d="M520 190C520 157 547 130 580 130H1020C1053 130 1080 157 1080 190V280H520V190Z" fill="url(#b)"/><path d="M490 235C490 202 517 175 550 175H1050C1083 175 1110 202 1110 235V330H490V235Z" fill="url(#y)"/><path d="M460 280C460 247 487 220 520 220H1080C1113 220 1140 247 1140 280V390H460V280Z" fill="url(#p)"/><path d="M410 330C410 286 446 250 490 250H655C675 250 694 258 708 272L753 317C768 332 788 340 809 340H1120C1164 340 1200 376 1200 420V690C1200 748 1153 795 1095 795H505C447 795 400 748 400 690L410 330Z" fill="url(#v)"/><path opacity=".09" d="M410 330C410 286 446 250 490 250H655C675 250 694 258 708 272L753 317C768 332 788 340 809 340H1120C1164 340 1200 376 1200 420V455H400L410 330Z" fill="white"/><path d="M690 444C690 438 694 434 700 434H900C906 434 910 438 910 444V648C910 656 901 660 895 656L805 599C802 597 798 597 794 599L705 656C699 660 690 656 690 648V444Z" fill="white"/><defs><linearGradient id="b" x1="520" y1="130" x2="520" y2="280" gradientUnits="userSpaceOnUse"><stop stop-color="#3A8CFF"/><stop offset="1" stop-color="#0660E9"/></linearGradient><linearGradient id="y" x1="490" y1="175" x2="490" y2="330" gradientUnits="userSpaceOnUse"><stop stop-color="#FFD95A"/><stop offset="1" stop-color="#F5A900"/></linearGradient><linearGradient id="p" x1="460" y1="220" x2="460" y2="390" gradientUnits="userSpaceOnUse"><stop stop-color="#FF4CA2"/><stop offset="1" stop-color="#E9006E"/></linearGradient><linearGradient id="v" x1="496" y1="250" x2="859" y2="934" gradientUnits="userSpaceOnUse"><stop stop-color="#B078FF"/><stop offset=".52" stop-color="#8A3DFF"/><stop offset="1" stop-color="#5D16D8"/></linearGradient></defs></svg>
