<svg width="1600" height="1100" viewBox="0 0 1600 1100" fill="none" xmlns="http://www.w3.org/2000/svg">
<path d="M520 190C520 157 547 130 580 130H1020C1053 130 1080 157 1080 190V280H520V190Z" fill="url(#b)"/>
<path d="M490 235C490 202 517 175 550 175H1050C1083 175 1110 202 1110 235V330H490V235Z" fill="url(#y)"/>
<path d="M460 280C460 247 487 220 520 220H1080C1113 220 1140 247 1140 280V390H460V280Z" fill="url(#p)"/>
<path d="M410 330C410 286 446 250 490 250H655C675 250 694 258 708 272L753 317C768 332 788 340 809 340H1120C1164 340 1200 376 1200 420V690C1200 748 1153 795 1095 795H505C447 795 400 748 400 690L410 330Z" fill="url(#v)"/>
<path opacity=".09" d="M410 330C410 286 446 250 490 250H655C675 250 694 258 708 272L753 317C768 332 788 340 809 340H1120C1164 340 1200 376 1200 420V455H400L410 330Z" fill="white"/>
<path d="M325 853H370.862L420 951.276L469.138 853H515L440.966 997.138H399.034L325 853Z" fill="#111"/><path d="M541.207 997.138L617.862 853H661.104L737.759 997.138H691.897L639.483 895.586L587.069 997.138H541.207Z" fill="url(#a)"/><path d="M771 853H815.462V936.368C815.462 959.105 831.808 973 856 973C880.192 973 896.538 959.105 896.538 936.368V853H941V938.895C941 976.789 906.346 997 856 997C805.654 997 771 976.789 771 938.895V853Z" fill="#111"/><path d="M980.173 853H1024.72V961.103H1101.38V997.138H980.173V853Z" fill="#111"/><path d="M1117.76 853H1275V891H1218.66V997.138H1174.1V891H1117.76V853Z" fill="#111"/>
<path d="M690 444C690 438.477 694.477 434 700 434H900C905.523 434 910 438.477 910 444V647.809C910 655.694 901.299 660.477 894.641 656.252L805.084 599.41C801.806 597.329 797.62 597.334 794.347 599.423L705.379 656.188C698.722 660.435 690 655.654 690 647.757V444Z" fill="white"/>
<defs><linearGradient id="b" x1="520" y1="130" x2="520" y2="280" gradientUnits="userSpaceOnUse"><stop stop-color="#3A8CFF"/><stop offset="1" stop-color="#0660E9"/></linearGradient><linearGradient id="y" x1="490" y1="175" x2="490" y2="330" gradientUnits="userSpaceOnUse"><stop stop-color="#FFD95A"/><stop offset="1" stop-color="#F5A900"/></linearGradient><linearGradient id="p" x1="460" y1="220" x2="460" y2="390" gradientUnits="userSpaceOnUse"><stop stop-color="#FF4CA2"/><stop offset="1" stop-color="#E9006E"/></linearGradient><linearGradient id="v" x1="496" y1="250" x2="859" y2="934" gradientUnits="userSpaceOnUse"><stop stop-color="#B078FF"/><stop offset=".52" stop-color="#8A3DFF"/><stop offset="1" stop-color="#5D16D8"/></linearGradient><linearGradient id="a" x1="541" y1="853" x2="679" y2="1040" gradientUnits="userSpaceOnUse"><stop stop-color="#B26EFF"/><stop offset="1" stop-color="#6B24E8"/></linearGradient></defs>
</svg>
